# xmcd CD database file
#
# Track frame offsets:
#	150
#	17100
#	32702
#	62175
#	79053
#	99452
#	119737
#	131060
#	152965
#	171559
#	185061
#	201034
#
# Disc length: 2906 seconds
#
# Revision: 0
# Processed by: cddbd v1.4PL0 Copyright (c) Steve Scherf et al.
# Submitted via: CDex 1.50Beta5
#
DISCID=b00b580c
DTITLE=Richie Arndt and the Bluenatics - All Kind of Blue(s)
DYEAR=1997
DGENRE=Blues
TTITLE0=Tightrope
TTITLE1=Letter to my Girlfriend
TTITLE2=When the Train comes
TTITLE3=You've done me wrong
TTITLE4=Fool for ya Stockings
TTITLE5=Anything you want me to do
TTITLE6=Sweet Little Angel
TTITLE7=Need Your Love so bad
TTITLE8=To Hot to Handle
TTITLE9=Make your mind up
TTITLE10=Help me
TTITLE11=When the Train comes (Radio Version)
EXTD=YEAR: 1997
EXTT0=
EXTT1=
EXTT2=
EXTT3=
EXTT4=
EXTT5=
EXTT6=
EXTT7=
EXTT8=
EXTT9=
EXTT10=
EXTT11=
PLAYORDER=
